<?xml version="1.0" encoding="utf-8"?>
<!-- Generator: Adobe Illustrator 15.1.0, SVG Export Plug-In . SVG Version: 6.00 Build 0)  -->
<!DOCTYPE svg PUBLIC "-//W3C//DTD SVG 1.1//EN" "http://www.w3.org/Graphics/SVG/1.1/DTD/svg11.dtd">
<svg version="1.1" id="Layer_1" xmlns="http://www.w3.org/2000/svg" xmlns:xlink="http://www.w3.org/1999/xlink" x="0px" y="0px"
	 width="300px" height="300px" viewBox="0 0 300 300" enable-background="new 0 0 300 300" xml:space="preserve">
<path fill-rule="evenodd" clip-rule="evenodd" fill="#B3B3B3" stroke="#000000" stroke-width="0.9601" stroke-linecap="round" stroke-miterlimit="2.6131" d="
	M138.626,28.951c-2.155,1.676-11.255,6.226-10.776,7.423c0.479,1.197,9.578,16.284,9.578,16.284l-5.747,7.902l-19.157-2.634
	c0,0-6.226,12.213-4.311,12.931c1.916,0.718,16.523,6.226,16.763,8.142c0.239,1.916,0.239,8.86,0.239,8.86l-17.241,9.339
	l4.071,14.368l17.241-4.071l5.747,7.184l-10.057,15.325l12.212,9.579l12.931-12.452l8.86,1.916l2.395,18.917l14.128-0.239
	l1.197-16.762l9.579-5.029l12.931,14.607l10.775-9.1l-9.1-15.086c0,0,3.113-9.099,4.551-8.62c1.437,0.479,18.438,5.507,19.156,4.31
	c0.719-1.197,3.592-14.368,3.592-14.368l-16.762-7.184l-0.479-10.297l17.002-8.142l-5.268-14.128l-17.002,3.592l-5.747-6.465
	l8.859-16.523l-12.212-9.579l-11.255,13.649c0,0-8.382-0.479-9.1-1.676c-0.719-1.197-2.155-18.678-2.155-18.678l-11.016-1.437
	l-1.437,19.396l-9.339,3.113C152.275,43.319,138.865,28.951,138.626,28.951z"/>
<path fill-rule="evenodd" clip-rule="evenodd" fill="#4D4D4D" stroke="#000000" stroke-width="0.9601" stroke-linecap="round" stroke-miterlimit="2.6131" d="
	M130.155,120.155c-2.213-1.6-9.127-9.063-10.143-8.267c-1.016,0.795-12.951,13.753-12.951,13.753l-9.195-3.305l-2.833-19.128
	c0,0-13.468-2.559-13.621-0.518c-0.153,2.04-1.352,17.605-3.124,18.371c-1.772,0.767-8.438,2.71-8.438,2.71l-13.792-13.938
	l-12.654,7.93l8.734,15.413l-5.288,7.528l-17.528-5.365l-5.777,14.406l15.574,8.929l0.641,9.042l-17.491,7.594l4.185,13.497
	l16.428-3.543l7.509,7.788l-10.403,16.503l11.752,7.798l11.936-12.959c0,0,9.607,0.441,9.549,1.955
	c-0.057,1.514-0.125,19.243,1.225,19.598s14.799-0.573,14.799-0.573l2.205-18.104l9.751-3.342l12.576,14.043l12.089-9.013
	l-8.208-15.316l4.598-7.327l18.343,3.881l5.777-14.405l-16.254-6.984c0,0-1.887-8.181-0.938-9.205
	c0.948-1.025,17.328-7.298,17.328-7.298l-1.704-10.977l-19.023,4.05l-5.603-8.094C120.183,137.281,130.222,120.385,130.155,120.155z
	"/>
<path fill-rule="evenodd" clip-rule="evenodd" fill="#808080" stroke="#000000" stroke-width="0.9601" stroke-linecap="round" stroke-miterlimit="2.6131" d="
	M264.255,143.144c-2.213-1.6-9.128-9.062-10.144-8.267S241.16,148.63,241.16,148.63l-9.195-3.305l-2.833-19.129
	c0,0-13.468-2.559-13.621-0.518c-0.153,2.04-1.352,17.605-3.124,18.371s-8.438,2.71-8.438,2.71l-13.792-13.938l-12.654,7.93
	l8.734,15.413l-5.288,7.528l-17.528-5.365l-5.776,14.405l15.573,8.929l0.642,9.042l-17.491,7.594l4.185,13.497l16.428-3.543
	l7.509,7.788l-10.403,16.503l11.752,7.798l11.936-12.959c0,0,9.607,0.442,9.55,1.955c-0.058,1.514-0.126,19.243,1.225,19.598
	s14.799-0.573,14.799-0.573l2.204-18.104l9.751-3.342l12.576,14.043l12.089-9.013l-8.208-15.316l4.599-7.327l18.343,3.881
	l5.776-14.405l-16.254-6.984c0,0-1.887-8.181-0.938-9.205c0.948-1.024,17.327-7.298,17.327-7.298l-1.703-10.977l-19.023,4.05
	l-5.603-8.094C254.282,160.27,264.321,143.374,264.255,143.144z"/>
</svg>
